<mxfile host="app.diagrams.net" agent="Mozilla/5.0 (Macintosh; Intel Mac OS X 10_15_7) AppleWebKit/537.36 (KHTML, like Gecko) Chrome/135.0.0.0 Safari/537.36" version="26.2.9">
  <diagram name="Page-1" id="LputnrfcXQccIIowQQMe">
    <mxGraphModel dx="1758" dy="1746" grid="1" gridSize="10" guides="1" tooltips="1" connect="1" arrows="1" fold="1" page="1" pageScale="1" pageWidth="827" pageHeight="1169" math="0" shadow="0">
      <root>
        <mxCell id="0" />
        <mxCell id="1" parent="0" />
        <mxCell id="KgOsWzzpOUB980owW0C_-1" value="app" style="rounded=0;whiteSpace=wrap;html=1;" parent="1" vertex="1">
          <mxGeometry x="-60" y="329" width="980" height="50" as="geometry" />
        </mxCell>
        <mxCell id="KgOsWzzpOUB980owW0C_-2" value="TEST" style="ellipse;whiteSpace=wrap;html=1;aspect=fixed;" parent="1" vertex="1">
          <mxGeometry x="570" y="-110" width="80" height="80" as="geometry" />
        </mxCell>
        <mxCell id="KgOsWzzpOUB980owW0C_-3" value="CURRENT&lt;br&gt;STEPS" style="ellipse;whiteSpace=wrap;html=1;aspect=fixed;" parent="1" vertex="1">
          <mxGeometry x="350" y="-80" width="80" height="80" as="geometry" />
        </mxCell>
        <mxCell id="KgOsWzzpOUB980owW0C_-4" value="STEP GOAL" style="ellipse;whiteSpace=wrap;html=1;aspect=fixed;" parent="1" vertex="1">
          <mxGeometry x="250" y="50" width="80" height="80" as="geometry" />
        </mxCell>
        <mxCell id="KgOsWzzpOUB980owW0C_-5" value="DISTANCE TRAVELLED" style="ellipse;whiteSpace=wrap;html=1;aspect=fixed;" parent="1" vertex="1">
          <mxGeometry x="510" y="40" width="80" height="80" as="geometry" />
        </mxCell>
        <mxCell id="KgOsWzzpOUB980owW0C_-6" value="" style="endArrow=classic;html=1;rounded=0;exitX=1;exitY=0.638;exitDx=0;exitDy=0;exitPerimeter=0;" parent="1" source="KgOsWzzpOUB980owW0C_-3" target="KgOsWzzpOUB980owW0C_-5" edge="1">
          <mxGeometry width="50" height="50" relative="1" as="geometry">
            <mxPoint x="430" y="-50" as="sourcePoint" />
            <mxPoint x="480" y="-100" as="targetPoint" />
          </mxGeometry>
        </mxCell>
        <mxCell id="KgOsWzzpOUB980owW0C_-25" value="Joystick Left" style="edgeLabel;html=1;align=center;verticalAlign=middle;resizable=0;points=[];rotation=45;" parent="KgOsWzzpOUB980owW0C_-6" vertex="1" connectable="0">
          <mxGeometry x="0.161" y="2" relative="1" as="geometry">
            <mxPoint as="offset" />
          </mxGeometry>
        </mxCell>
        <mxCell id="KgOsWzzpOUB980owW0C_-7" value="" style="endArrow=classic;html=1;rounded=0;exitX=0;exitY=0.5;exitDx=0;exitDy=0;" parent="1" source="KgOsWzzpOUB980owW0C_-5" edge="1">
          <mxGeometry width="50" height="50" relative="1" as="geometry">
            <mxPoint x="364" y="40" as="sourcePoint" />
            <mxPoint x="414" y="-10" as="targetPoint" />
          </mxGeometry>
        </mxCell>
        <mxCell id="KgOsWzzpOUB980owW0C_-26" value="Joystick Right" style="edgeLabel;html=1;align=center;verticalAlign=middle;resizable=0;points=[];rotation=45;" parent="KgOsWzzpOUB980owW0C_-7" vertex="1" connectable="0">
          <mxGeometry x="-0.0873" y="-3" relative="1" as="geometry">
            <mxPoint as="offset" />
          </mxGeometry>
        </mxCell>
        <mxCell id="KgOsWzzpOUB980owW0C_-8" value="" style="endArrow=classic;html=1;rounded=0;exitX=0;exitY=1;exitDx=0;exitDy=0;entryX=0.425;entryY=-0.025;entryDx=0;entryDy=0;entryPerimeter=0;" parent="1" source="KgOsWzzpOUB980owW0C_-3" target="KgOsWzzpOUB980owW0C_-4" edge="1">
          <mxGeometry width="50" height="50" relative="1" as="geometry">
            <mxPoint x="356" y="50" as="sourcePoint" />
            <mxPoint x="446" y="132" as="targetPoint" />
          </mxGeometry>
        </mxCell>
        <mxCell id="KgOsWzzpOUB980owW0C_-30" value="Joystick Right" style="edgeLabel;html=1;align=center;verticalAlign=middle;resizable=0;points=[];rotation=-45;" parent="KgOsWzzpOUB980owW0C_-8" vertex="1" connectable="0">
          <mxGeometry x="-0.131" y="-2" relative="1" as="geometry">
            <mxPoint x="1" as="offset" />
          </mxGeometry>
        </mxCell>
        <mxCell id="KgOsWzzpOUB980owW0C_-9" value="" style="endArrow=classic;html=1;rounded=0;exitX=0.338;exitY=1;exitDx=0;exitDy=0;exitPerimeter=0;entryX=0.375;entryY=1.025;entryDx=0;entryDy=0;entryPerimeter=0;" parent="1" target="KgOsWzzpOUB980owW0C_-3" edge="1">
          <mxGeometry width="50" height="50" relative="1" as="geometry">
            <mxPoint x="317.03999999999996" y="60" as="sourcePoint" />
            <mxPoint x="270" y="140" as="targetPoint" />
          </mxGeometry>
        </mxCell>
        <mxCell id="KgOsWzzpOUB980owW0C_-29" value="Joystick Left" style="edgeLabel;html=1;align=center;verticalAlign=middle;resizable=0;points=[];rotation=-45;" parent="KgOsWzzpOUB980owW0C_-9" vertex="1" connectable="0">
          <mxGeometry x="-0.1225" y="-2" relative="1" as="geometry">
            <mxPoint as="offset" />
          </mxGeometry>
        </mxCell>
        <mxCell id="KgOsWzzpOUB980owW0C_-10" value="" style="endArrow=classic;html=1;rounded=0;exitX=0;exitY=0.5;exitDx=0;exitDy=0;entryX=1;entryY=0.65;entryDx=0;entryDy=0;entryPerimeter=0;" parent="1" target="KgOsWzzpOUB980owW0C_-4" edge="1">
          <mxGeometry width="50" height="50" relative="1" as="geometry">
            <mxPoint x="516" y="100" as="sourcePoint" />
            <mxPoint x="420" y="10" as="targetPoint" />
          </mxGeometry>
        </mxCell>
        <mxCell id="KgOsWzzpOUB980owW0C_-27" value="Joystick Left" style="edgeLabel;html=1;align=center;verticalAlign=middle;resizable=0;points=[];" parent="KgOsWzzpOUB980owW0C_-10" vertex="1" connectable="0">
          <mxGeometry x="-0.022" y="-4" relative="1" as="geometry">
            <mxPoint as="offset" />
          </mxGeometry>
        </mxCell>
        <mxCell id="KgOsWzzpOUB980owW0C_-11" value="" style="endArrow=classic;html=1;rounded=0;exitX=1;exitY=1;exitDx=0;exitDy=0;entryX=0.225;entryY=0.963;entryDx=0;entryDy=0;entryPerimeter=0;" parent="1" source="KgOsWzzpOUB980owW0C_-4" target="KgOsWzzpOUB980owW0C_-5" edge="1">
          <mxGeometry width="50" height="50" relative="1" as="geometry">
            <mxPoint x="630" y="200" as="sourcePoint" />
            <mxPoint x="534" y="110" as="targetPoint" />
          </mxGeometry>
        </mxCell>
        <mxCell id="KgOsWzzpOUB980owW0C_-28" value="Joystick Right" style="edgeLabel;html=1;align=center;verticalAlign=middle;resizable=0;points=[];" parent="KgOsWzzpOUB980owW0C_-11" vertex="1" connectable="0">
          <mxGeometry x="0.0941" y="2" relative="1" as="geometry">
            <mxPoint as="offset" />
          </mxGeometry>
        </mxCell>
        <mxCell id="KgOsWzzpOUB980owW0C_-12" value="" style="endArrow=classic;html=1;rounded=0;entryX=-0.012;entryY=0.425;entryDx=0;entryDy=0;entryPerimeter=0;" parent="1" target="KgOsWzzpOUB980owW0C_-2" edge="1">
          <mxGeometry width="50" height="50" relative="1" as="geometry">
            <mxPoint x="420" y="-60" as="sourcePoint" />
            <mxPoint x="470" y="-110" as="targetPoint" />
          </mxGeometry>
        </mxCell>
        <mxCell id="KgOsWzzpOUB980owW0C_-21" value="SW2 Double Click" style="edgeLabel;html=1;align=center;verticalAlign=middle;resizable=0;points=[];" parent="KgOsWzzpOUB980owW0C_-12" vertex="1" connectable="0">
          <mxGeometry x="-0.0998" y="1" relative="1" as="geometry">
            <mxPoint as="offset" />
          </mxGeometry>
        </mxCell>
        <mxCell id="KgOsWzzpOUB980owW0C_-13" value="" style="endArrow=classic;html=1;rounded=0;entryX=1;entryY=0.5;entryDx=0;entryDy=0;" parent="1" target="KgOsWzzpOUB980owW0C_-3" edge="1">
          <mxGeometry width="50" height="50" relative="1" as="geometry">
            <mxPoint x="570" y="-54" as="sourcePoint" />
            <mxPoint x="719" y="-70" as="targetPoint" />
          </mxGeometry>
        </mxCell>
        <mxCell id="KgOsWzzpOUB980owW0C_-22" value="SW2 Double Click" style="edgeLabel;html=1;align=center;verticalAlign=middle;resizable=0;points=[];" parent="KgOsWzzpOUB980owW0C_-13" vertex="1" connectable="0">
          <mxGeometry x="0.0721" relative="1" as="geometry">
            <mxPoint y="1" as="offset" />
          </mxGeometry>
        </mxCell>
        <mxCell id="KgOsWzzpOUB980owW0C_-14" value="" style="endArrow=classic;html=1;rounded=0;" parent="1" target="KgOsWzzpOUB980owW0C_-2" edge="1">
          <mxGeometry width="50" height="50" relative="1" as="geometry">
            <mxPoint x="550" y="40" as="sourcePoint" />
            <mxPoint x="699" y="24" as="targetPoint" />
          </mxGeometry>
        </mxCell>
        <mxCell id="KgOsWzzpOUB980owW0C_-24" value="SW2&lt;div&gt;Double&lt;/div&gt;&lt;div&gt;Click&lt;/div&gt;" style="edgeLabel;html=1;align=center;verticalAlign=middle;resizable=0;points=[];" parent="KgOsWzzpOUB980owW0C_-14" vertex="1" connectable="0">
          <mxGeometry x="-0.0999" y="3" relative="1" as="geometry">
            <mxPoint as="offset" />
          </mxGeometry>
        </mxCell>
        <mxCell id="KgOsWzzpOUB980owW0C_-15" value="" style="endArrow=classic;html=1;rounded=0;entryX=0.813;entryY=0.05;entryDx=0;entryDy=0;entryPerimeter=0;exitX=0.5;exitY=1;exitDx=0;exitDy=0;" parent="1" source="KgOsWzzpOUB980owW0C_-2" target="KgOsWzzpOUB980owW0C_-5" edge="1">
          <mxGeometry width="50" height="50" relative="1" as="geometry">
            <mxPoint x="720" y="12" as="sourcePoint" />
            <mxPoint x="580" y="26" as="targetPoint" />
          </mxGeometry>
        </mxCell>
        <mxCell id="KgOsWzzpOUB980owW0C_-23" value="SW2&lt;div&gt;Double&lt;/div&gt;&lt;div&gt;Click&lt;/div&gt;" style="edgeLabel;html=1;align=center;verticalAlign=middle;resizable=0;points=[];" parent="KgOsWzzpOUB980owW0C_-15" vertex="1" connectable="0">
          <mxGeometry x="-0.2027" y="-1" relative="1" as="geometry">
            <mxPoint x="15" y="21" as="offset" />
          </mxGeometry>
        </mxCell>
        <mxCell id="KgOsWzzpOUB980owW0C_-17" value="" style="endArrow=classic;html=1;rounded=0;entryX=0;entryY=0;entryDx=0;entryDy=0;exitX=0.3;exitY=0.063;exitDx=0;exitDy=0;exitPerimeter=0;" parent="1" source="KgOsWzzpOUB980owW0C_-4" target="KgOsWzzpOUB980owW0C_-2" edge="1">
          <mxGeometry width="50" height="50" relative="1" as="geometry">
            <mxPoint x="260" y="60" as="sourcePoint" />
            <mxPoint x="310" y="10" as="targetPoint" />
            <Array as="points">
              <mxPoint x="274" y="-100" />
              <mxPoint x="430" y="-98" />
            </Array>
          </mxGeometry>
        </mxCell>
        <mxCell id="KgOsWzzpOUB980owW0C_-20" value="SW2 Double Click" style="edgeLabel;html=1;align=center;verticalAlign=middle;resizable=0;points=[];" parent="KgOsWzzpOUB980owW0C_-17" vertex="1" connectable="0">
          <mxGeometry x="0.2621" relative="1" as="geometry">
            <mxPoint as="offset" />
          </mxGeometry>
        </mxCell>
        <mxCell id="KgOsWzzpOUB980owW0C_-18" value="" style="endArrow=classic;html=1;rounded=0;entryX=0;entryY=0.375;entryDx=0;entryDy=0;entryPerimeter=0;" parent="1" target="KgOsWzzpOUB980owW0C_-4" edge="1">
          <mxGeometry width="50" height="50" relative="1" as="geometry">
            <mxPoint x="600" y="-110" as="sourcePoint" />
            <mxPoint x="650" y="-160" as="targetPoint" />
            <Array as="points">
              <mxPoint x="250" y="-110" />
            </Array>
          </mxGeometry>
        </mxCell>
        <mxCell id="KgOsWzzpOUB980owW0C_-19" value="SW2 Double Click" style="edgeLabel;html=1;align=center;verticalAlign=middle;resizable=0;points=[];" parent="KgOsWzzpOUB980owW0C_-18" vertex="1" connectable="0">
          <mxGeometry x="-0.1749" relative="1" as="geometry">
            <mxPoint as="offset" />
          </mxGeometry>
        </mxCell>
        <mxCell id="KgOsWzzpOUB980owW0C_-61" style="edgeStyle=orthogonalEdgeStyle;rounded=0;orthogonalLoop=1;jettySize=auto;html=1;" parent="1" source="KgOsWzzpOUB980owW0C_-32" target="KgOsWzzpOUB980owW0C_-60" edge="1">
          <mxGeometry relative="1" as="geometry">
            <Array as="points">
              <mxPoint x="300" y="588.05" />
              <mxPoint x="300" y="588.05" />
            </Array>
          </mxGeometry>
        </mxCell>
        <mxCell id="KgOsWzzpOUB980owW0C_-103" value="Update Signal" style="edgeLabel;html=1;align=center;verticalAlign=middle;resizable=0;points=[];rotation=-90;" parent="KgOsWzzpOUB980owW0C_-61" vertex="1" connectable="0">
          <mxGeometry x="0.0227" y="-3" relative="1" as="geometry">
            <mxPoint x="-7" y="-28" as="offset" />
          </mxGeometry>
        </mxCell>
        <mxCell id="KgOsWzzpOUB980owW0C_-32" value="task_buttons" style="rounded=0;whiteSpace=wrap;html=1;" parent="1" vertex="1">
          <mxGeometry x="270" y="488.05" width="100" height="50" as="geometry" />
        </mxCell>
        <mxCell id="KgOsWzzpOUB980owW0C_-127" style="edgeStyle=orthogonalEdgeStyle;rounded=0;orthogonalLoop=1;jettySize=auto;html=1;endArrow=none;endFill=1;startArrow=classic;startFill=0;exitX=0.75;exitY=1;exitDx=0;exitDy=0;" parent="1" source="KgOsWzzpOUB980owW0C_-75" edge="1">
          <mxGeometry relative="1" as="geometry">
            <mxPoint x="340" y="730" as="targetPoint" />
            <mxPoint x="650" y="620" as="sourcePoint" />
            <Array as="points">
              <mxPoint x="455" y="730" />
            </Array>
          </mxGeometry>
        </mxCell>
        <mxCell id="KgOsWzzpOUB980owW0C_-59" style="edgeStyle=orthogonalEdgeStyle;rounded=0;orthogonalLoop=1;jettySize=auto;html=1;" parent="1" edge="1">
          <mxGeometry relative="1" as="geometry">
            <mxPoint x="190" y="538.05" as="sourcePoint" />
            <mxPoint x="191" y="751" as="targetPoint" />
          </mxGeometry>
        </mxCell>
        <mxCell id="KgOsWzzpOUB980owW0C_-101" value="Update Signal" style="edgeLabel;html=1;align=center;verticalAlign=middle;resizable=0;points=[];rotation=-90;" parent="KgOsWzzpOUB980owW0C_-59" vertex="1" connectable="0">
          <mxGeometry x="0.2748" y="-2" relative="1" as="geometry">
            <mxPoint x="-8" y="-56" as="offset" />
          </mxGeometry>
        </mxCell>
        <mxCell id="KgOsWzzpOUB980owW0C_-38" value="task_joystick" style="rounded=0;whiteSpace=wrap;html=1;" parent="1" vertex="1">
          <mxGeometry x="160" y="488.05" width="100" height="50" as="geometry" />
        </mxCell>
        <mxCell id="KgOsWzzpOUB980owW0C_-39" value="task&lt;span style=&quot;background-color: transparent; color: light-dark(rgb(0, 0, 0), rgb(255, 255, 255));&quot;&gt;_usart&lt;/span&gt;" style="rounded=0;whiteSpace=wrap;html=1;" parent="1" vertex="1">
          <mxGeometry x="-60" y="488.05" width="100" height="50" as="geometry" />
        </mxCell>
        <mxCell id="KgOsWzzpOUB980owW0C_-40" value="task_fsm" style="rounded=0;whiteSpace=wrap;html=1;" parent="1" vertex="1">
          <mxGeometry x="380" y="488.05" width="540" height="50" as="geometry" />
        </mxCell>
        <mxCell id="KgOsWzzpOUB980owW0C_-41" value="MODIFY&lt;div&gt;GOAL&lt;/div&gt;" style="ellipse;whiteSpace=wrap;html=1;aspect=fixed;" parent="1" vertex="1">
          <mxGeometry x="50" y="60" width="80" height="80" as="geometry" />
        </mxCell>
        <mxCell id="KgOsWzzpOUB980owW0C_-42" value="" style="endArrow=classic;html=1;rounded=0;exitX=0;exitY=0.5;exitDx=0;exitDy=0;" parent="1" edge="1">
          <mxGeometry width="50" height="50" relative="1" as="geometry">
            <mxPoint x="250" y="89" as="sourcePoint" />
            <mxPoint x="130" y="89" as="targetPoint" />
          </mxGeometry>
        </mxCell>
        <mxCell id="KgOsWzzpOUB980owW0C_-43" value="Long Joystick&lt;div&gt;Press&lt;/div&gt;" style="edgeLabel;html=1;align=center;verticalAlign=middle;resizable=0;points=[];" parent="KgOsWzzpOUB980owW0C_-42" vertex="1" connectable="0">
          <mxGeometry x="-0.022" y="-4" relative="1" as="geometry">
            <mxPoint y="-15" as="offset" />
          </mxGeometry>
        </mxCell>
        <mxCell id="KgOsWzzpOUB980owW0C_-44" value="" style="endArrow=classic;html=1;rounded=0;exitX=1.004;exitY=0.691;exitDx=0;exitDy=0;entryX=0.077;entryY=0.824;entryDx=0;entryDy=0;entryPerimeter=0;exitPerimeter=0;" parent="1" source="KgOsWzzpOUB980owW0C_-41" target="KgOsWzzpOUB980owW0C_-4" edge="1">
          <mxGeometry width="50" height="50" relative="1" as="geometry">
            <mxPoint x="250" y="150" as="sourcePoint" />
            <mxPoint x="130" y="150" as="targetPoint" />
          </mxGeometry>
        </mxCell>
        <mxCell id="KgOsWzzpOUB980owW0C_-45" value="Long Joystick&lt;div&gt;Press&lt;/div&gt;&lt;div&gt;UPDATE=TRUE&lt;/div&gt;" style="edgeLabel;html=1;align=center;verticalAlign=middle;resizable=0;points=[];" parent="KgOsWzzpOUB980owW0C_-44" vertex="1" connectable="0">
          <mxGeometry x="-0.022" y="-4" relative="1" as="geometry">
            <mxPoint as="offset" />
          </mxGeometry>
        </mxCell>
        <mxCell id="KgOsWzzpOUB980owW0C_-46" value="" style="endArrow=classic;html=1;rounded=0;exitX=1.004;exitY=0.691;exitDx=0;exitDy=0;entryX=0.577;entryY=1.007;entryDx=0;entryDy=0;entryPerimeter=0;exitPerimeter=0;" parent="1" target="KgOsWzzpOUB980owW0C_-4" edge="1">
          <mxGeometry width="50" height="50" relative="1" as="geometry">
            <mxPoint x="100" y="140" as="sourcePoint" />
            <mxPoint x="226" y="141" as="targetPoint" />
            <Array as="points">
              <mxPoint x="100" y="160" />
              <mxPoint x="296" y="160" />
            </Array>
          </mxGeometry>
        </mxCell>
        <mxCell id="KgOsWzzpOUB980owW0C_-47" value="Short Joystick Press&lt;div&gt;UPDATE=FALSE&lt;/div&gt;" style="edgeLabel;html=1;align=center;verticalAlign=middle;resizable=0;points=[];" parent="KgOsWzzpOUB980owW0C_-46" vertex="1" connectable="0">
          <mxGeometry x="-0.022" y="-4" relative="1" as="geometry">
            <mxPoint as="offset" />
          </mxGeometry>
        </mxCell>
        <mxCell id="KgOsWzzpOUB980owW0C_-55" value="ssd1306" style="rounded=0;whiteSpace=wrap;html=1;" parent="1" vertex="1">
          <mxGeometry x="380" y="750" width="540" height="50" as="geometry" />
        </mxCell>
        <mxCell id="KgOsWzzpOUB980owW0C_-89" style="edgeStyle=orthogonalEdgeStyle;rounded=0;orthogonalLoop=1;jettySize=auto;html=1;startArrow=classic;startFill=1;" parent="1" source="KgOsWzzpOUB980owW0C_-56" edge="1">
          <mxGeometry relative="1" as="geometry">
            <mxPoint x="210.08333333333348" y="881" as="targetPoint" />
          </mxGeometry>
        </mxCell>
        <mxCell id="KgOsWzzpOUB980owW0C_-56" value="joystick" style="rounded=0;whiteSpace=wrap;html=1;" parent="1" vertex="1">
          <mxGeometry x="160" y="750" width="100" height="50" as="geometry" />
        </mxCell>
        <mxCell id="KgOsWzzpOUB980owW0C_-88" style="edgeStyle=orthogonalEdgeStyle;rounded=0;orthogonalLoop=1;jettySize=auto;html=1;startArrow=classic;startFill=1;" parent="1" source="KgOsWzzpOUB980owW0C_-57" edge="1">
          <mxGeometry relative="1" as="geometry">
            <mxPoint x="99.25" y="883.5" as="targetPoint" />
          </mxGeometry>
        </mxCell>
        <mxCell id="KgOsWzzpOUB980owW0C_-57" value="pot ??" style="rounded=0;whiteSpace=wrap;html=1;" parent="1" vertex="1">
          <mxGeometry x="50" y="750" width="100" height="50" as="geometry" />
        </mxCell>
        <mxCell id="KgOsWzzpOUB980owW0C_-90" style="edgeStyle=orthogonalEdgeStyle;rounded=0;orthogonalLoop=1;jettySize=auto;html=1;entryX=0.5;entryY=0;entryDx=0;entryDy=0;startArrow=classic;startFill=1;" parent="1" source="KgOsWzzpOUB980owW0C_-60" target="KgOsWzzpOUB980owW0C_-86" edge="1">
          <mxGeometry relative="1" as="geometry" />
        </mxCell>
        <mxCell id="KgOsWzzpOUB980owW0C_-60" value="buttons" style="rounded=0;whiteSpace=wrap;html=1;" parent="1" vertex="1">
          <mxGeometry x="270" y="750" width="100" height="50" as="geometry" />
        </mxCell>
        <mxCell id="KgOsWzzpOUB980owW0C_-62" style="edgeStyle=orthogonalEdgeStyle;rounded=0;orthogonalLoop=1;jettySize=auto;html=1;entryX=0.093;entryY=1;entryDx=0;entryDy=0;entryPerimeter=0;endArrow=none;startFill=1;startArrow=classic;exitX=0.5;exitY=0;exitDx=0;exitDy=0;" parent="1" source="KgOsWzzpOUB980owW0C_-75" target="KgOsWzzpOUB980owW0C_-40" edge="1">
          <mxGeometry relative="1" as="geometry">
            <mxPoint x="430.0400000000002" y="568.05" as="sourcePoint" />
          </mxGeometry>
        </mxCell>
        <mxCell id="KgOsWzzpOUB980owW0C_-69" value="Update Signal" style="edgeLabel;html=1;align=center;verticalAlign=middle;resizable=0;points=[];fontSize=8;rotation=-90;" parent="KgOsWzzpOUB980owW0C_-62" vertex="1" connectable="0">
          <mxGeometry x="0.9715" y="1" relative="1" as="geometry">
            <mxPoint x="-9" y="31" as="offset" />
          </mxGeometry>
        </mxCell>
        <mxCell id="KgOsWzzpOUB980owW0C_-67" style="edgeStyle=orthogonalEdgeStyle;rounded=0;orthogonalLoop=1;jettySize=auto;html=1;entryX=0.909;entryY=1.029;entryDx=0;entryDy=0;entryPerimeter=0;endArrow=none;startFill=1;startArrow=classic;exitX=0.5;exitY=0;exitDx=0;exitDy=0;" parent="1" target="KgOsWzzpOUB980owW0C_-40" edge="1">
          <mxGeometry relative="1" as="geometry">
            <mxPoint x="870" y="610" as="sourcePoint" />
          </mxGeometry>
        </mxCell>
        <mxCell id="KgOsWzzpOUB980owW0C_-74" value="Update Signal" style="edgeLabel;html=1;align=center;verticalAlign=middle;resizable=0;points=[];fontSize=8;rotation=-90;" parent="KgOsWzzpOUB980owW0C_-67" vertex="1" connectable="0">
          <mxGeometry x="0.2638" y="1" relative="1" as="geometry">
            <mxPoint x="-10" as="offset" />
          </mxGeometry>
        </mxCell>
        <mxCell id="KgOsWzzpOUB980owW0C_-77" style="edgeStyle=orthogonalEdgeStyle;rounded=0;orthogonalLoop=1;jettySize=auto;html=1;entryX=0.5;entryY=0;entryDx=0;entryDy=0;" parent="1" target="KgOsWzzpOUB980owW0C_-57" edge="1">
          <mxGeometry relative="1" as="geometry">
            <mxPoint x="99.64" y="538.05" as="sourcePoint" />
            <mxPoint x="99.64" y="708.05" as="targetPoint" />
            <Array as="points" />
          </mxGeometry>
        </mxCell>
        <mxCell id="KgOsWzzpOUB980owW0C_-97" value="Update Signal" style="edgeLabel;html=1;align=center;verticalAlign=middle;resizable=0;points=[];rotation=-90;" parent="KgOsWzzpOUB980owW0C_-77" vertex="1" connectable="0">
          <mxGeometry x="-0.2669" relative="1" as="geometry">
            <mxPoint x="-10" y="18" as="offset" />
          </mxGeometry>
        </mxCell>
        <mxCell id="KgOsWzzpOUB980owW0C_-126" style="edgeStyle=orthogonalEdgeStyle;rounded=0;orthogonalLoop=1;jettySize=auto;html=1;endArrow=none;endFill=1;startArrow=classic;startFill=1;entryX=0.702;entryY=-0.016;entryDx=0;entryDy=0;entryPerimeter=0;exitX=0.5;exitY=1;exitDx=0;exitDy=0;" parent="1" source="KgOsWzzpOUB980owW0C_-75" target="KgOsWzzpOUB980owW0C_-57" edge="1">
          <mxGeometry relative="1" as="geometry">
            <mxPoint x="230" y="690" as="targetPoint" />
            <mxPoint x="430" y="620" as="sourcePoint" />
            <Array as="points">
              <mxPoint x="430" y="692" />
              <mxPoint x="120" y="692" />
            </Array>
          </mxGeometry>
        </mxCell>
        <mxCell id="KgOsWzzpOUB980owW0C_-75" value="state_task_goal" style="rounded=0;whiteSpace=wrap;html=1;" parent="1" vertex="1">
          <mxGeometry x="380" y="610" width="100" height="50" as="geometry" />
        </mxCell>
        <mxCell id="KgOsWzzpOUB980owW0C_-87" style="edgeStyle=orthogonalEdgeStyle;rounded=0;orthogonalLoop=1;jettySize=auto;html=1;entryX=0.5;entryY=0;entryDx=0;entryDy=0;startArrow=classic;startFill=1;" parent="1" source="KgOsWzzpOUB980owW0C_-82" target="KgOsWzzpOUB980owW0C_-83" edge="1">
          <mxGeometry relative="1" as="geometry" />
        </mxCell>
        <mxCell id="KgOsWzzpOUB980owW0C_-82" value="usart_debugger" style="rounded=0;whiteSpace=wrap;html=1;" parent="1" vertex="1">
          <mxGeometry x="-60" y="750" width="100" height="50" as="geometry" />
        </mxCell>
        <mxCell id="KgOsWzzpOUB980owW0C_-83" value="usart" style="rounded=0;whiteSpace=wrap;html=1;" parent="1" vertex="1">
          <mxGeometry x="-60" y="880" width="100" height="50" as="geometry" />
        </mxCell>
        <mxCell id="KgOsWzzpOUB980owW0C_-84" value="ADC" style="rounded=0;whiteSpace=wrap;html=1;" parent="1" vertex="1">
          <mxGeometry x="50" y="880" width="210" height="50" as="geometry" />
        </mxCell>
        <mxCell id="KgOsWzzpOUB980owW0C_-86" value="HAL_GPIO" style="rounded=0;whiteSpace=wrap;html=1;" parent="1" vertex="1">
          <mxGeometry x="270" y="880" width="100" height="50" as="geometry" />
        </mxCell>
        <mxCell id="KgOsWzzpOUB980owW0C_-94" style="edgeStyle=orthogonalEdgeStyle;rounded=0;orthogonalLoop=1;jettySize=auto;html=1;entryX=0.5;entryY=0;entryDx=0;entryDy=0;" parent="1" target="KgOsWzzpOUB980owW0C_-82" edge="1">
          <mxGeometry relative="1" as="geometry">
            <mxPoint x="-10" y="538.05" as="sourcePoint" />
            <mxPoint x="-10" y="708.05" as="targetPoint" />
            <Array as="points" />
          </mxGeometry>
        </mxCell>
        <mxCell id="KgOsWzzpOUB980owW0C_-96" value="Debug Messages" style="edgeLabel;html=1;align=center;verticalAlign=middle;resizable=0;points=[];rotation=-90;" parent="KgOsWzzpOUB980owW0C_-94" vertex="1" connectable="0">
          <mxGeometry x="-0.4535" y="2" relative="1" as="geometry">
            <mxPoint x="-12" y="34" as="offset" />
          </mxGeometry>
        </mxCell>
        <mxCell id="KgOsWzzpOUB980owW0C_-110" style="edgeStyle=orthogonalEdgeStyle;rounded=0;orthogonalLoop=1;jettySize=auto;html=1;entryX=0.275;entryY=1.014;entryDx=0;entryDy=0;entryPerimeter=0;exitX=0.297;exitY=1.014;exitDx=0;exitDy=0;exitPerimeter=0;" parent="1" source="KgOsWzzpOUB980owW0C_-1" edge="1">
          <mxGeometry relative="1" as="geometry">
            <mxPoint x="230.5" y="596.4000000000002" as="sourcePoint" />
            <mxPoint x="230" y="488.05000000000007" as="targetPoint" />
          </mxGeometry>
        </mxCell>
        <mxCell id="KgOsWzzpOUB980owW0C_-118" value="Update Signal" style="edgeLabel;html=1;align=center;verticalAlign=middle;resizable=0;points=[];rotation=-90;" parent="KgOsWzzpOUB980owW0C_-110" vertex="1" connectable="0">
          <mxGeometry x="0.1148" y="2" relative="1" as="geometry">
            <mxPoint x="-12" y="-10" as="offset" />
          </mxGeometry>
        </mxCell>
        <mxCell id="KgOsWzzpOUB980owW0C_-112" style="edgeStyle=orthogonalEdgeStyle;rounded=0;orthogonalLoop=1;jettySize=auto;html=1;entryX=0.275;entryY=1.014;entryDx=0;entryDy=0;entryPerimeter=0;exitX=0.297;exitY=1.014;exitDx=0;exitDy=0;exitPerimeter=0;" parent="1" edge="1">
          <mxGeometry relative="1" as="geometry">
            <mxPoint x="340.23" y="379" as="sourcePoint" />
            <mxPoint x="339.23" y="487.05000000000007" as="targetPoint" />
          </mxGeometry>
        </mxCell>
        <mxCell id="KgOsWzzpOUB980owW0C_-121" value="Update Signal" style="edgeLabel;html=1;align=center;verticalAlign=middle;resizable=0;points=[];rotation=-90;" parent="KgOsWzzpOUB980owW0C_-112" vertex="1" connectable="0">
          <mxGeometry x="-0.1407" relative="1" as="geometry">
            <mxPoint x="-11" y="4" as="offset" />
          </mxGeometry>
        </mxCell>
        <mxCell id="KgOsWzzpOUB980owW0C_-113" style="edgeStyle=orthogonalEdgeStyle;rounded=0;orthogonalLoop=1;jettySize=auto;html=1;entryX=0.275;entryY=1.014;entryDx=0;entryDy=0;entryPerimeter=0;exitX=0.297;exitY=1.014;exitDx=0;exitDy=0;exitPerimeter=0;" parent="1" edge="1">
          <mxGeometry relative="1" as="geometry">
            <mxPoint x="100.22000000000001" y="380" as="sourcePoint" />
            <mxPoint x="99.22000000000001" y="488.05000000000007" as="targetPoint" />
          </mxGeometry>
        </mxCell>
        <mxCell id="KgOsWzzpOUB980owW0C_-116" value="Update Signal" style="edgeLabel;html=1;align=center;verticalAlign=middle;resizable=0;points=[];rotation=-90;" parent="KgOsWzzpOUB980owW0C_-113" vertex="1" connectable="0">
          <mxGeometry x="-0.2435" y="4" relative="1" as="geometry">
            <mxPoint x="-15" y="8" as="offset" />
          </mxGeometry>
        </mxCell>
        <mxCell id="KgOsWzzpOUB980owW0C_-114" style="edgeStyle=orthogonalEdgeStyle;rounded=0;orthogonalLoop=1;jettySize=auto;html=1;entryX=0.275;entryY=1.014;entryDx=0;entryDy=0;entryPerimeter=0;exitX=0.297;exitY=1.014;exitDx=0;exitDy=0;exitPerimeter=0;" parent="1" edge="1">
          <mxGeometry relative="1" as="geometry">
            <mxPoint x="-9.780000000000008" y="380" as="sourcePoint" />
            <mxPoint x="-10.780000000000008" y="488.05000000000007" as="targetPoint" />
          </mxGeometry>
        </mxCell>
        <mxCell id="KgOsWzzpOUB980owW0C_-115" value="Update Signal" style="edgeLabel;html=1;align=center;verticalAlign=middle;resizable=0;points=[];rotation=-90;" parent="KgOsWzzpOUB980owW0C_-114" vertex="1" connectable="0">
          <mxGeometry x="-0.3027" y="1" relative="1" as="geometry">
            <mxPoint x="-12" y="12" as="offset" />
          </mxGeometry>
        </mxCell>
        <mxCell id="KgOsWzzpOUB980owW0C_-122" style="edgeStyle=orthogonalEdgeStyle;rounded=0;orthogonalLoop=1;jettySize=auto;html=1;entryX=0.725;entryY=1.037;entryDx=0;entryDy=0;entryPerimeter=0;endArrow=none;startFill=1;startArrow=classic;" parent="1" source="KgOsWzzpOUB980owW0C_-40" target="KgOsWzzpOUB980owW0C_-1" edge="1">
          <mxGeometry relative="1" as="geometry" />
        </mxCell>
        <mxCell id="KgOsWzzpOUB980owW0C_-123" value="Update Signal" style="edgeLabel;html=1;align=center;verticalAlign=middle;resizable=0;points=[];rotation=-90;" parent="KgOsWzzpOUB980owW0C_-122" vertex="1" connectable="0">
          <mxGeometry x="0.204" y="1" relative="1" as="geometry">
            <mxPoint x="-9" as="offset" />
          </mxGeometry>
        </mxCell>
        <mxCell id="KgOsWzzpOUB980owW0C_-128" value="state_task_dist" style="rounded=0;whiteSpace=wrap;html=1;" parent="1" vertex="1">
          <mxGeometry x="820" y="610" width="100" height="50" as="geometry" />
        </mxCell>
        <mxCell id="KgOsWzzpOUB980owW0C_-132" style="edgeStyle=orthogonalEdgeStyle;rounded=0;orthogonalLoop=1;jettySize=auto;html=1;entryX=0.093;entryY=1;entryDx=0;entryDy=0;entryPerimeter=0;endArrow=none;startFill=1;startArrow=classic;exitX=0.5;exitY=0;exitDx=0;exitDy=0;" parent="1" edge="1">
          <mxGeometry relative="1" as="geometry">
            <mxPoint x="570" y="610" as="sourcePoint" />
            <mxPoint x="570" y="538" as="targetPoint" />
          </mxGeometry>
        </mxCell>
        <mxCell id="KgOsWzzpOUB980owW0C_-133" value="Update Signal" style="edgeLabel;html=1;align=center;verticalAlign=middle;resizable=0;points=[];fontSize=8;rotation=-90;" parent="KgOsWzzpOUB980owW0C_-132" vertex="1" connectable="0">
          <mxGeometry x="0.9715" y="1" relative="1" as="geometry">
            <mxPoint x="-9" y="31" as="offset" />
          </mxGeometry>
        </mxCell>
        <mxCell id="KgOsWzzpOUB980owW0C_-138" style="edgeStyle=orthogonalEdgeStyle;rounded=0;orthogonalLoop=1;jettySize=auto;html=1;entryX=0.093;entryY=1;entryDx=0;entryDy=0;entryPerimeter=0;endArrow=none;startFill=1;startArrow=classic;exitX=0.5;exitY=0;exitDx=0;exitDy=0;" parent="1" edge="1">
          <mxGeometry relative="1" as="geometry">
            <mxPoint x="665.13" y="610" as="sourcePoint" />
            <mxPoint x="665.13" y="538" as="targetPoint" />
          </mxGeometry>
        </mxCell>
        <mxCell id="KgOsWzzpOUB980owW0C_-139" value="Update Signal" style="edgeLabel;html=1;align=center;verticalAlign=middle;resizable=0;points=[];fontSize=8;rotation=-90;" parent="KgOsWzzpOUB980owW0C_-138" vertex="1" connectable="0">
          <mxGeometry x="0.9715" y="1" relative="1" as="geometry">
            <mxPoint x="-9" y="31" as="offset" />
          </mxGeometry>
        </mxCell>
        <mxCell id="KgOsWzzpOUB980owW0C_-145" style="edgeStyle=orthogonalEdgeStyle;rounded=0;orthogonalLoop=1;jettySize=auto;html=1;endArrow=none;endFill=1;startArrow=classic;startFill=0;exitX=0.5;exitY=1;exitDx=0;exitDy=0;" parent="1" source="KgOsWzzpOUB980owW0C_-128" edge="1">
          <mxGeometry relative="1" as="geometry">
            <mxPoint x="340" y="730" as="targetPoint" />
            <mxPoint x="540.04" y="660" as="sourcePoint" />
            <Array as="points">
              <mxPoint x="650" y="730" />
              <mxPoint x="340" y="730" />
            </Array>
          </mxGeometry>
        </mxCell>
        <mxCell id="KgOsWzzpOUB980owW0C_-148" value="state_task_test" style="rounded=0;whiteSpace=wrap;html=1;" parent="1" vertex="1">
          <mxGeometry x="490" y="610" width="100" height="50" as="geometry" />
        </mxCell>
        <mxCell id="KgOsWzzpOUB980owW0C_-149" value="state_task_count" style="rounded=0;whiteSpace=wrap;html=1;" parent="1" vertex="1">
          <mxGeometry x="600" y="610" width="100" height="50" as="geometry" />
        </mxCell>
        <mxCell id="KgOsWzzpOUB980owW0C_-150" style="edgeStyle=orthogonalEdgeStyle;rounded=0;orthogonalLoop=1;jettySize=auto;html=1;endArrow=none;endFill=1;startArrow=classic;startFill=1;entryX=0.7;entryY=-0.004;entryDx=0;entryDy=0;entryPerimeter=0;" parent="1" target="KgOsWzzpOUB980owW0C_-56" edge="1">
          <mxGeometry relative="1" as="geometry">
            <mxPoint x="230" y="713" as="targetPoint" />
            <mxPoint x="560" y="660" as="sourcePoint" />
            <Array as="points">
              <mxPoint x="560" y="713" />
              <mxPoint x="230" y="713" />
            </Array>
          </mxGeometry>
        </mxCell>
        <mxCell id="KgOsWzzpOUB980owW0C_-167" value="Joystick Flags" style="edgeLabel;html=1;align=center;verticalAlign=middle;resizable=0;points=[];" parent="KgOsWzzpOUB980owW0C_-150" vertex="1" connectable="0">
          <mxGeometry x="0.2152" y="1" relative="1" as="geometry">
            <mxPoint x="-3" y="-10" as="offset" />
          </mxGeometry>
        </mxCell>
        <mxCell id="KgOsWzzpOUB980owW0C_-151" style="edgeStyle=orthogonalEdgeStyle;rounded=0;orthogonalLoop=1;jettySize=auto;html=1;endArrow=none;endFill=1;startArrow=classic;startFill=1;entryX=0.702;entryY=-0.016;entryDx=0;entryDy=0;entryPerimeter=0;exitX=0.374;exitY=0.965;exitDx=0;exitDy=0;exitPerimeter=0;" parent="1" source="KgOsWzzpOUB980owW0C_-148" edge="1">
          <mxGeometry relative="1" as="geometry">
            <mxPoint x="120" y="749" as="targetPoint" />
            <mxPoint x="430" y="660" as="sourcePoint" />
            <Array as="points">
              <mxPoint x="527" y="660" />
              <mxPoint x="530" y="660" />
              <mxPoint x="530" y="692" />
              <mxPoint x="120" y="692" />
            </Array>
          </mxGeometry>
        </mxCell>
        <mxCell id="KgOsWzzpOUB980owW0C_-166" value="Pot Position" style="edgeLabel;html=1;align=center;verticalAlign=middle;resizable=0;points=[];" parent="KgOsWzzpOUB980owW0C_-151" vertex="1" connectable="0">
          <mxGeometry x="-0.2425" y="-3" relative="1" as="geometry">
            <mxPoint x="1" y="-6" as="offset" />
          </mxGeometry>
        </mxCell>
        <mxCell id="KgOsWzzpOUB980owW0C_-152" style="edgeStyle=orthogonalEdgeStyle;rounded=0;orthogonalLoop=1;jettySize=auto;html=1;endArrow=none;endFill=1;startArrow=classic;startFill=0;" parent="1" edge="1">
          <mxGeometry relative="1" as="geometry">
            <mxPoint x="338" y="750" as="targetPoint" />
            <mxPoint x="650" y="660" as="sourcePoint" />
            <Array as="points">
              <mxPoint x="650" y="730" />
              <mxPoint x="338" y="730" />
            </Array>
          </mxGeometry>
        </mxCell>
        <mxCell id="KgOsWzzpOUB980owW0C_-168" value="Button Flags" style="edgeLabel;html=1;align=center;verticalAlign=middle;resizable=0;points=[];" parent="KgOsWzzpOUB980owW0C_-152" vertex="1" connectable="0">
          <mxGeometry x="0.797" y="-3" relative="1" as="geometry">
            <mxPoint x="-1" y="-4" as="offset" />
          </mxGeometry>
        </mxCell>
        <mxCell id="KgOsWzzpOUB980owW0C_-153" value="i2c" style="rounded=0;whiteSpace=wrap;html=1;" parent="1" vertex="1">
          <mxGeometry x="380" y="880" width="540" height="50" as="geometry" />
        </mxCell>
        <mxCell id="KgOsWzzpOUB980owW0C_-154" style="edgeStyle=orthogonalEdgeStyle;rounded=0;orthogonalLoop=1;jettySize=auto;html=1;entryX=0.5;entryY=0;entryDx=0;entryDy=0;startArrow=classic;startFill=1;" parent="1" edge="1">
          <mxGeometry relative="1" as="geometry">
            <mxPoint x="650" y="800" as="sourcePoint" />
            <mxPoint x="650" y="880" as="targetPoint" />
          </mxGeometry>
        </mxCell>
        <mxCell id="KgOsWzzpOUB980owW0C_-155" style="edgeStyle=orthogonalEdgeStyle;rounded=0;orthogonalLoop=1;jettySize=auto;html=1;entryX=0.093;entryY=1;entryDx=0;entryDy=0;entryPerimeter=0;endArrow=none;startFill=1;startArrow=classic;exitX=0.063;exitY=-0.037;exitDx=0;exitDy=0;exitPerimeter=0;" parent="1" source="KgOsWzzpOUB980owW0C_-55" edge="1">
          <mxGeometry relative="1" as="geometry">
            <mxPoint x="413" y="732" as="sourcePoint" />
            <mxPoint x="413" y="660" as="targetPoint" />
          </mxGeometry>
        </mxCell>
        <mxCell id="KgOsWzzpOUB980owW0C_-157" style="edgeStyle=orthogonalEdgeStyle;rounded=0;orthogonalLoop=1;jettySize=auto;html=1;entryX=0.093;entryY=1;entryDx=0;entryDy=0;entryPerimeter=0;endArrow=none;startFill=1;startArrow=classic;exitX=0.063;exitY=-0.037;exitDx=0;exitDy=0;exitPerimeter=0;" parent="1" edge="1">
          <mxGeometry relative="1" as="geometry">
            <mxPoint x="511" y="748" as="sourcePoint" />
            <mxPoint x="510" y="660" as="targetPoint" />
          </mxGeometry>
        </mxCell>
        <mxCell id="KgOsWzzpOUB980owW0C_-158" style="edgeStyle=orthogonalEdgeStyle;rounded=0;orthogonalLoop=1;jettySize=auto;html=1;entryX=0.093;entryY=1;entryDx=0;entryDy=0;entryPerimeter=0;endArrow=none;startFill=1;startArrow=classic;exitX=0.063;exitY=-0.037;exitDx=0;exitDy=0;exitPerimeter=0;" parent="1" edge="1">
          <mxGeometry relative="1" as="geometry">
            <mxPoint x="631" y="748" as="sourcePoint" />
            <mxPoint x="630" y="660" as="targetPoint" />
          </mxGeometry>
        </mxCell>
        <mxCell id="KgOsWzzpOUB980owW0C_-160" style="edgeStyle=orthogonalEdgeStyle;rounded=0;orthogonalLoop=1;jettySize=auto;html=1;entryX=0.093;entryY=1;entryDx=0;entryDy=0;entryPerimeter=0;endArrow=none;startFill=1;startArrow=classic;exitX=0.063;exitY=-0.037;exitDx=0;exitDy=0;exitPerimeter=0;" parent="1" edge="1">
          <mxGeometry relative="1" as="geometry">
            <mxPoint x="861" y="750" as="sourcePoint" />
            <mxPoint x="860" y="662" as="targetPoint" />
          </mxGeometry>
        </mxCell>
        <mxCell id="KgOsWzzpOUB980owW0C_-161" value="" style="shape=waypoint;sketch=0;size=6;pointerEvents=1;points=[];fillColor=none;resizable=0;rotatable=0;perimeter=centerPerimeter;snapToPoint=1;" parent="1" vertex="1">
          <mxGeometry x="420" y="680" width="20" height="20" as="geometry" />
        </mxCell>
        <mxCell id="KgOsWzzpOUB980owW0C_-164" value="" style="shape=waypoint;sketch=0;size=6;pointerEvents=1;points=[];fillColor=none;resizable=0;rotatable=0;perimeter=centerPerimeter;snapToPoint=1;" parent="1" vertex="1">
          <mxGeometry x="640" y="720" width="20" height="20" as="geometry" />
        </mxCell>
        <mxCell id="KgOsWzzpOUB980owW0C_-165" value="" style="shape=waypoint;sketch=0;size=6;pointerEvents=1;points=[];fillColor=none;resizable=0;rotatable=0;perimeter=centerPerimeter;snapToPoint=1;" parent="1" vertex="1">
          <mxGeometry x="445" y="720" width="20" height="20" as="geometry" />
        </mxCell>
        <mxCell id="KgOsWzzpOUB980owW0C_-173" value="" style="endArrow=none;dashed=1;html=1;dashPattern=1 3;strokeWidth=2;rounded=0;" parent="1" edge="1">
          <mxGeometry width="50" height="50" relative="1" as="geometry">
            <mxPoint x="-320" y="740" as="sourcePoint" />
            <mxPoint x="1348.75" y="740" as="targetPoint" />
          </mxGeometry>
        </mxCell>
        <mxCell id="KgOsWzzpOUB980owW0C_-174" value="Drivers" style="text;html=1;align=center;verticalAlign=middle;resizable=0;points=[];autosize=1;strokeColor=none;fillColor=none;fontSize=23;" parent="1" vertex="1">
          <mxGeometry x="-280" y="770" width="100" height="40" as="geometry" />
        </mxCell>
        <mxCell id="KgOsWzzpOUB980owW0C_-175" value="" style="endArrow=none;dashed=1;html=1;dashPattern=1 3;strokeWidth=2;rounded=0;" parent="1" edge="1">
          <mxGeometry width="50" height="50" relative="1" as="geometry">
            <mxPoint x="-330" y="830" as="sourcePoint" />
            <mxPoint x="1338.75" y="830" as="targetPoint" />
          </mxGeometry>
        </mxCell>
        <mxCell id="KgOsWzzpOUB980owW0C_-176" value="Application" style="text;html=1;align=center;verticalAlign=middle;resizable=0;points=[];autosize=1;strokeColor=none;fillColor=none;fontSize=23;" parent="1" vertex="1">
          <mxGeometry x="-300" y="682" width="140" height="40" as="geometry" />
        </mxCell>
        <mxCell id="KgOsWzzpOUB980owW0C_-177" value="HW Abstraction" style="text;html=1;align=center;verticalAlign=middle;resizable=0;points=[];autosize=1;strokeColor=none;fillColor=none;fontSize=23;" parent="1" vertex="1">
          <mxGeometry x="-310" y="880" width="180" height="40" as="geometry" />
        </mxCell>
        <mxCell id="KgOsWzzpOUB980owW0C_-178" value="task_pot??" style="rounded=0;whiteSpace=wrap;html=1;" parent="1" vertex="1">
          <mxGeometry x="50" y="488.05" width="100" height="50" as="geometry" />
        </mxCell>
        <mxCell id="KgOsWzzpOUB980owW0C_-179" style="edgeStyle=orthogonalEdgeStyle;rounded=0;orthogonalLoop=1;jettySize=auto;html=1;entryX=0.093;entryY=1;entryDx=0;entryDy=0;entryPerimeter=0;endArrow=classic;startFill=0;startArrow=none;endFill=1;" parent="1" edge="1">
          <mxGeometry relative="1" as="geometry">
            <mxPoint x="780" y="570.05" as="sourcePoint" />
            <mxPoint x="780" y="538.05" as="targetPoint" />
          </mxGeometry>
        </mxCell>
        <mxCell id="KgOsWzzpOUB980owW0C_-180" value="Button, joystick" style="edgeLabel;html=1;align=center;verticalAlign=middle;resizable=0;points=[];fontSize=8;rotation=-90;" parent="KgOsWzzpOUB980owW0C_-179" vertex="1" connectable="0">
          <mxGeometry x="0.9715" y="1" relative="1" as="geometry">
            <mxPoint x="-9" y="31" as="offset" />
          </mxGeometry>
        </mxCell>
        <mxCell id="X3yXGI1UgIdQFzKSIpZe-1" value="task_display" style="rounded=0;whiteSpace=wrap;html=1;" vertex="1" parent="1">
          <mxGeometry x="-170" y="488.05" width="100" height="50" as="geometry" />
        </mxCell>
        <mxCell id="X3yXGI1UgIdQFzKSIpZe-2" style="edgeStyle=orthogonalEdgeStyle;rounded=0;orthogonalLoop=1;jettySize=auto;html=1;endArrow=classic;startFill=0;startArrow=none;endFill=1;" edge="1" parent="1">
          <mxGeometry relative="1" as="geometry">
            <mxPoint x="-120.22" y="538.05" as="sourcePoint" />
            <mxPoint x="-120.22" y="571.05" as="targetPoint" />
          </mxGeometry>
        </mxCell>
        <mxCell id="X3yXGI1UgIdQFzKSIpZe-3" value="ssd1306" style="edgeLabel;html=1;align=center;verticalAlign=middle;resizable=0;points=[];fontSize=8;rotation=-90;" vertex="1" connectable="0" parent="X3yXGI1UgIdQFzKSIpZe-2">
          <mxGeometry x="0.9715" y="1" relative="1" as="geometry">
            <mxPoint x="-11" y="-15" as="offset" />
          </mxGeometry>
        </mxCell>
        <mxCell id="X3yXGI1UgIdQFzKSIpZe-4" style="edgeStyle=orthogonalEdgeStyle;rounded=0;orthogonalLoop=1;jettySize=auto;html=1;endArrow=classic;startFill=0;startArrow=none;endFill=1;" edge="1" parent="1">
          <mxGeometry relative="1" as="geometry">
            <mxPoint x="-120.22" y="455.04999999999995" as="sourcePoint" />
            <mxPoint x="-120.22" y="488.04999999999995" as="targetPoint" />
          </mxGeometry>
        </mxCell>
        <mxCell id="X3yXGI1UgIdQFzKSIpZe-5" value="update signal" style="edgeLabel;html=1;align=center;verticalAlign=middle;resizable=0;points=[];fontSize=8;rotation=-90;" vertex="1" connectable="0" parent="X3yXGI1UgIdQFzKSIpZe-4">
          <mxGeometry x="0.9715" y="1" relative="1" as="geometry">
            <mxPoint x="-11" y="-28" as="offset" />
          </mxGeometry>
        </mxCell>
        <mxCell id="X3yXGI1UgIdQFzKSIpZe-8" value="Modify the button class to:&lt;div&gt;- Add the joystick button&lt;/div&gt;&lt;div&gt;- Have a function to return &quot;flags&quot; - like I&#39;ve done in joystick.c&lt;/div&gt;&lt;div&gt;- The flag struct should contain short press, long press and double press flags&lt;/div&gt;&lt;div&gt;- Then, should be able to call get_button_flags(enum butNames butname)&lt;/div&gt;&lt;div&gt;&lt;br&gt;&lt;/div&gt;" style="text;html=1;align=center;verticalAlign=middle;resizable=0;points=[];autosize=1;strokeColor=none;fillColor=none;" vertex="1" parent="1">
          <mxGeometry x="1140" y="565" width="440" height="100" as="geometry" />
        </mxCell>
      </root>
    </mxGraphModel>
  </diagram>
</mxfile>
